<svg xmlns="http://www.w3.org/2000/svg" viewBox="0 0 128 128" fill="none">
  <rect width="128" height="128" rx="32" fill="#2563EB"/>
  <path d="M64 32C56.268 32 50 38.268 50 46H56C56 40.477 60.477 36 66 36H68C73.523 36 78 40.477 78 46H84C84 38.268 77.732 32 70 32H64Z" fill="#fff"/>
  <path d="M46 48H82C84.761 48 87 50.239 87 53V79C87 87.836 79.836 95 71 95H57C48.164 95 41 87.836 41 79V53C41 50.239 43.239 48 46 48Z" fill="#fff"/>
  <path d="M57 48V36" stroke="#2563EB" stroke-width="5" stroke-linecap="round"/>
  <path d="M71 48V36" stroke="#2563EB" stroke-width="5" stroke-linecap="round"/>
  <path d="M44 57L84 57" stroke="#2563EB" stroke-width="5" stroke-linecap="round"/>
</svg>
